<?xml version="1.0" standalone="no"?>
<!DOCTYPE svg PUBLIC "-//W3C//DTD SVG 20010904//EN"
 "http://www.w3.org/TR/2001/REC-SVG-20010904/DTD/svg10.dtd">
<svg version="1.0" xmlns="http://www.w3.org/2000/svg"
 width="512.000000pt" height="512.000000pt" viewBox="0 0 512.000000 512.000000"
 preserveAspectRatio="xMidYMid meet">
<metadata>
Created by potrace 1.14, written by Peter Selinger 2001-2017
</metadata>
<g transform="translate(0.000000,512.000000) scale(0.100000,-0.100000)"
fill="#000000" stroke="none">
<path d="M2270 5105 c-590 -72 -1108 -322 -1520 -735 -485 -486 -750 -1123
-750 -1805 0 -689 265 -1330 750 -1815 486 -485 1123 -750 1805 -750 689 0
1330 265 1815 750 605 606 864 1452 705 2300 -194 1029 -1045 1861 -2080 2035
-226 37 -515 46 -725 20z m-850 -1716 c190 -29 319 -109 382 -237 31 -63 33
-72 33 -177 0 -100 -3 -115 -28 -166 -25 -52 -84 -116 -151 -164 l-27 -20 64
-47 c79 -56 138 -129 168 -205 18 -47 22 -80 23 -174 1 -114 1 -116 -37 -191
-138 -280 -579 -379 -1025 -229 -139 46 -221 90 -284 151 -46 44 -58 62 -58
87 0 55 21 58 168 27 l32 -6 0 80 c0 188 88 542 185 747 70 147 135 219 195
213 19 -2 26 -11 31 -38 16 -75 -14 -284 -89 -625 -23 -102 -49 -452 -36 -465
18 -18 197 -42 258 -35 146 16 259 98 292 211 31 107 4 290 -55 369 l-29 39
-79 -3 c-143 -5 -213 27 -213 99 0 72 73 105 217 99 l77 -4 23 34 c32 47 43
94 43 181 0 91 -21 143 -76 188 -51 43 -112 62 -216 69 -149 10 -281 -21 -461
-108 -85 -41 -143 -50 -154 -23 -9 23 60 116 125 166 193 152 413 201 702 157z
m2825 -14 c102 -28 205 -85 266 -146 188 -188 178 -502 -24 -716 -117 -123
-229 -167 -416 -162 -130 4 -178 22 -196 73 -13 37 6 51 93 65 127 22 167 38
225 91 66 60 91 115 108 232 34 244 -82 373 -346 385 -142 7 -258 -19 -412
-91 -128 -60 -193 -73 -193 -38 0 28 51 102 103 149 71 65 246 146 372 173 67
15 352 4 420 -15z m-802 6 c39 -15 39 -36 -2 -124 -53 -114 -44 -111 -337
-104 l-234 5 0 -29 c0 -16 -25 -174 -55 -351 -66 -389 -91 -584 -105 -800 -11
-174 -18 -196 -68 -222 -41 -21 -156 -39 -198 -32 -51 10 -58 36 -58 201 2
309 135 892 280 1222 10 23 -157 -7 -351 -63 -82 -23 -166 -45 -185 -48 -80
-14 -78 33 6 123 66 71 142 124 244 168 135 58 172 61 627 62 230 1 422 -3
436 -8z m405 -401 c4 -111 -4 -169 -64 -465 -38 -194 -45 -248 -57 -460 -15
-261 -18 -274 -75 -301 -44 -20 -155 -37 -197 -30 -40 8 -51 32 -59 128 -19
240 92 731 230 1014 64 132 146 219 199 212 18 -3 20 -12 23 -98z"/>
</g>
</svg>
